<mxfile host="app.diagrams.net" modified="2022-06-05T06:44:29.181Z" agent="5.0 (Windows NT 10.0; Win64; x64) AppleWebKit/537.36 (KHTML, like Gecko) Chrome/102.0.5005.63 Safari/537.36" etag="dgmyanO5XWj9rej1FxQ8" version="19.0.0" type="github">
  <diagram name="Page-1" id="c4acf3e9-155e-7222-9cf6-157b1a14988f">
    <mxGraphModel dx="687" dy="425" grid="1" gridSize="10" guides="1" tooltips="1" connect="1" arrows="1" fold="1" page="1" pageScale="1" pageWidth="850" pageHeight="1100" background="none" math="0" shadow="0">
      <root>
        <mxCell id="0" />
        <mxCell id="1" parent="0" />
        <mxCell id="6x6uG-pEpi2jYfn__AWn-2" value="&lt;p style=&quot;margin:0px;margin-top:4px;text-align:center;&quot;&gt;&lt;b&gt;&amp;lt;&amp;lt;Interface&amp;gt;&amp;gt;&lt;/b&gt;&lt;/p&gt;&lt;p style=&quot;margin:0px;margin-top:4px;text-align:center;&quot;&gt;&lt;b&gt;calculator&lt;/b&gt;&lt;/p&gt;&lt;hr size=&quot;1&quot;&gt;&lt;p style=&quot;margin:0px;margin-left:4px;&quot;&gt;- ui:&amp;nbsp;&lt;span style=&quot;background-color: initial; color: rgb(255, 128, 128);&quot;&gt;Ui&lt;/span&gt;&lt;span style=&quot;background-color: initial;&quot;&gt;::&lt;/span&gt;&lt;span style=&quot;background-color: initial; color: rgb(255, 128, 128);&quot;&gt;Calculator&lt;/span&gt;&lt;/p&gt;&lt;p style=&quot;margin:0px;margin-left:4px;&quot;&gt;&lt;span style=&quot;background-color: initial;&quot;&gt;-&amp;nbsp;&lt;/span&gt;&lt;span style=&quot;background-color: initial;&quot;&gt;cur_buffer :&lt;/span&gt;&lt;span style=&quot;background-color: initial; color: rgb(255, 128, 128);&quot;&gt;std&lt;/span&gt;&lt;span style=&quot;background-color: initial;&quot;&gt;::&lt;/span&gt;&lt;span style=&quot;background-color: initial; color: rgb(255, 128, 128);&quot;&gt;string&lt;/span&gt;&lt;/p&gt;&lt;p style=&quot;margin:0px;margin-left:4px;&quot;&gt;&lt;span style=&quot;background-color: initial;&quot;&gt;-&amp;nbsp;&lt;/span&gt;&lt;span style=&quot;background-color: initial;&quot;&gt;cal_buffer&lt;/span&gt;&lt;span style=&quot;background-color: initial;&quot;&gt;:&lt;/span&gt;&lt;span style=&quot;background-color: initial; color: rgb(255, 128, 128);&quot;&gt;std&lt;/span&gt;&lt;span style=&quot;background-color: initial;&quot;&gt;::&lt;/span&gt;&lt;span style=&quot;background-color: initial; color: rgb(255, 128, 128);&quot;&gt;string&lt;/span&gt;&lt;/p&gt;&lt;p style=&quot;margin:0px;margin-left:4px;&quot;&gt;&lt;span style=&quot;background-color: initial;&quot;&gt;-&amp;nbsp;&lt;/span&gt;&lt;span style=&quot;background-color: initial;&quot;&gt;show_buffer&lt;/span&gt;&lt;span style=&quot;background-color: initial;&quot;&gt;:&lt;/span&gt;&lt;span style=&quot;background-color: initial; color: rgb(255, 128, 128);&quot;&gt;std&lt;/span&gt;&lt;span style=&quot;background-color: initial;&quot;&gt;::&lt;/span&gt;&lt;span style=&quot;background-color: initial; color: rgb(255, 128, 128);&quot;&gt;string&lt;/span&gt;&lt;/p&gt;&lt;p style=&quot;margin:0px;margin-left:4px;&quot;&gt;&lt;span style=&quot;background-color: initial;&quot;&gt;- input:&amp;nbsp;&lt;/span&gt;&lt;span style=&quot;color: rgb(255, 128, 128); background-color: initial;&quot;&gt;Input&lt;/span&gt;&lt;/p&gt;&lt;p style=&quot;margin:0px;margin-left:4px;&quot;&gt;- first :&lt;span style=&quot;color: rgb(214, 154, 167); background-color: initial;&quot;&gt;bool&lt;/span&gt;&lt;/p&gt;&lt;p style=&quot;margin:0px;margin-left:4px;&quot;&gt;&lt;span style=&quot;background-color: initial;&quot;&gt;- point:&lt;/span&gt;&lt;span style=&quot;color: rgb(214, 154, 167); background-color: initial;&quot;&gt;bool&lt;/span&gt;&lt;/p&gt;&lt;hr size=&quot;1&quot;&gt;&lt;p style=&quot;margin:0px;margin-left:4px;&quot;&gt;- expAppend():&amp;nbsp;&lt;span style=&quot;color: rgb(214, 154, 167); background-color: initial;&quot;&gt;void&lt;/span&gt;&lt;/p&gt;&lt;p style=&quot;margin:0px;margin-left:4px;&quot;&gt;+ calculate():&lt;span style=&quot;color: rgb(214, 154, 167); background-color: initial;&quot;&gt;double&lt;/span&gt;&lt;/p&gt;" style="verticalAlign=top;align=left;overflow=fill;fontSize=12;fontFamily=Helvetica;html=1;strokeColor=default;fillColor=default;" vertex="1" parent="1">
          <mxGeometry x="290" y="210" width="160" height="210" as="geometry" />
        </mxCell>
        <mxCell id="6x6uG-pEpi2jYfn__AWn-4" value="&lt;p style=&quot;margin:0px;margin-top:4px;text-align:center;&quot;&gt;&lt;b&gt;Class&lt;/b&gt;&lt;/p&gt;&lt;p style=&quot;margin:0px;margin-top:4px;text-align:center;&quot;&gt;&lt;b&gt;Input&lt;/b&gt;&lt;/p&gt;&lt;hr size=&quot;1&quot;&gt;&lt;p style=&quot;margin:0px;margin-left:4px;&quot;&gt;-&amp;nbsp;&lt;span style=&quot;background-color: initial;&quot;&gt;suffixExp[&lt;font color=&quot;#ff6aad&quot;&gt;9999&lt;/font&gt;&lt;/span&gt;&lt;span style=&quot;background-color: initial;&quot;&gt;]&lt;/span&gt;&lt;span style=&quot;background-color: initial;&quot;&gt;:&amp;nbsp;&lt;/span&gt;&lt;span style=&quot;background-color: initial; color: rgb(255, 128, 128);&quot;&gt;std&lt;/span&gt;&lt;span style=&quot;background-color: initial;&quot;&gt;::&lt;/span&gt;&lt;span style=&quot;background-color: initial; color: rgb(255, 128, 128);&quot;&gt;string&lt;/span&gt;&lt;/p&gt;&lt;p style=&quot;margin:0px;margin-left:4px;&quot;&gt;&lt;span style=&quot;background-color: initial;&quot;&gt;- operators:&lt;/span&gt;&lt;span style=&quot;background-color: initial; font-style: italic; color: rgb(69, 198, 214);&quot;&gt;const&lt;/span&gt;&lt;span style=&quot;background-color: initial; color: rgb(190, 192, 194);&quot;&gt; &lt;/span&gt;&lt;span style=&quot;background-color: initial; color: rgb(255, 128, 128);&quot;&gt;std&lt;/span&gt;&lt;span style=&quot;background-color: initial;&quot;&gt;::&lt;/span&gt;&lt;span style=&quot;background-color: initial; color: rgb(255, 128, 128);&quot;&gt;string&lt;/span&gt;&lt;/p&gt;&lt;hr size=&quot;1&quot;&gt;&lt;p style=&quot;margin:0px;margin-left:4px;&quot;&gt;+ convert(&lt;span style=&quot;background-color: initial; color: rgb(255, 128, 128);&quot;&gt;std&lt;/span&gt;&lt;span style=&quot;background-color: initial;&quot;&gt;::&lt;/span&gt;&lt;span style=&quot;background-color: initial; color: rgb(255, 128, 128);&quot;&gt;string&lt;/span&gt;&lt;span style=&quot;background-color: initial; color: rgb(190, 192, 194);&quot;&gt; &lt;/span&gt;&lt;span style=&quot;background-color: initial; color: rgb(214, 187, 154);&quot;&gt;src&lt;/span&gt;&lt;span style=&quot;background-color: initial;&quot;&gt;):&amp;nbsp;&lt;/span&gt;&lt;span style=&quot;color: rgb(214, 154, 167); background-color: initial;&quot;&gt;void&lt;/span&gt;&lt;/p&gt;&lt;p style=&quot;margin:0px;margin-left:4px;&quot;&gt;+ calculate():&lt;span style=&quot;color: rgb(214, 154, 167); background-color: initial;&quot;&gt;double&lt;/span&gt;&lt;/p&gt;&lt;p style=&quot;margin:0px;margin-left:4px;&quot;&gt;&lt;span style=&quot;color: rgb(214, 154, 167); background-color: initial;&quot;&gt;&lt;br&gt;&lt;/span&gt;&lt;/p&gt;" style="verticalAlign=top;align=left;overflow=fill;fontSize=12;fontFamily=Helvetica;html=1;fontColor=#000000;strokeColor=default;fillColor=default;" vertex="1" parent="1">
          <mxGeometry x="20" y="250" width="190" height="130" as="geometry" />
        </mxCell>
        <mxCell id="6x6uG-pEpi2jYfn__AWn-6" value="&lt;p style=&quot;margin:0px;margin-top:4px;text-align:center;&quot;&gt;&lt;b&gt;Class&lt;/b&gt;&lt;/p&gt;&lt;p style=&quot;margin:0px;margin-top:4px;text-align:center;&quot;&gt;&lt;b&gt;Function&lt;/b&gt;&lt;/p&gt;&lt;hr size=&quot;1&quot;&gt;&lt;p style=&quot;margin:0px;margin-left:4px;&quot;&gt;&lt;br&gt;&lt;/p&gt;&lt;hr size=&quot;1&quot;&gt;&lt;p style=&quot;margin:0px;margin-left:4px;&quot;&gt;+ functions():&amp;nbsp;&lt;span style=&quot;color: rgb(214, 154, 167); background-color: initial;&quot;&gt;double&lt;/span&gt;&lt;/p&gt;" style="verticalAlign=top;align=left;overflow=fill;fontSize=12;fontFamily=Helvetica;html=1;fontColor=#000000;strokeColor=default;fillColor=default;" vertex="1" parent="1">
          <mxGeometry x="290" y="20" width="160" height="120" as="geometry" />
        </mxCell>
        <mxCell id="6x6uG-pEpi2jYfn__AWn-8" value="1" style="endArrow=open;html=1;endSize=12;startArrow=diamondThin;startSize=14;startFill=1;edgeStyle=orthogonalEdgeStyle;align=left;verticalAlign=bottom;rounded=0;fontColor=#000000;" edge="1" parent="1" source="6x6uG-pEpi2jYfn__AWn-2">
          <mxGeometry x="-0.4" y="-5" relative="1" as="geometry">
            <mxPoint x="130" y="315" as="sourcePoint" />
            <mxPoint x="210" y="315" as="targetPoint" />
            <mxPoint as="offset" />
          </mxGeometry>
        </mxCell>
        <mxCell id="6x6uG-pEpi2jYfn__AWn-9" value="1" style="endArrow=open;html=1;endSize=12;startArrow=diamondThin;startSize=14;startFill=1;edgeStyle=orthogonalEdgeStyle;align=left;verticalAlign=bottom;rounded=0;fontColor=#000000;entryX=0.5;entryY=1;entryDx=0;entryDy=0;" edge="1" parent="1" source="6x6uG-pEpi2jYfn__AWn-2" target="6x6uG-pEpi2jYfn__AWn-6">
          <mxGeometry x="-0.75" y="-30" relative="1" as="geometry">
            <mxPoint x="370" y="50" as="sourcePoint" />
            <mxPoint x="370" y="180" as="targetPoint" />
            <mxPoint as="offset" />
          </mxGeometry>
        </mxCell>
        <mxCell id="6x6uG-pEpi2jYfn__AWn-10" value="&lt;p style=&quot;margin:0px;margin-top:4px;text-align:center;&quot;&gt;&lt;b&gt;Class&lt;/b&gt;&lt;/p&gt;&lt;p style=&quot;margin:0px;margin-top:4px;text-align:center;&quot;&gt;&lt;b&gt;Memory&lt;/b&gt;&lt;/p&gt;&lt;hr size=&quot;1&quot;&gt;&lt;p style=&quot;margin:0px;margin-left:4px;&quot;&gt;-&amp;nbsp;&lt;span style=&quot;background-color: initial;&quot;&gt;mem[&lt;/span&gt;&lt;span style=&quot;color: rgb(138, 96, 44); background-color: initial;&quot;&gt;9999&lt;/span&gt;&lt;span style=&quot;background-color: initial;&quot;&gt;]&lt;/span&gt;&lt;span style=&quot;background-color: initial;&quot;&gt;:&amp;nbsp;&lt;/span&gt;&lt;span style=&quot;background-color: initial; color: rgb(255, 128, 128);&quot;&gt;std&lt;/span&gt;&lt;span style=&quot;background-color: initial;&quot;&gt;::&lt;/span&gt;&lt;span style=&quot;background-color: initial; color: rgb(255, 128, 128);&quot;&gt;string&lt;/span&gt;&lt;/p&gt;&lt;hr size=&quot;1&quot;&gt;&lt;p style=&quot;margin:0px;margin-left:4px;&quot;&gt;+&amp;nbsp;&lt;span style=&quot;font-weight: 600; background-color: initial;&quot;&gt;memory_clear&lt;/span&gt;&lt;span style=&quot;background-color: initial;&quot;&gt;():&amp;nbsp;&lt;/span&gt;&lt;span style=&quot;background-color: initial; color: rgb(255, 128, 128);&quot;&gt;std&lt;/span&gt;&lt;span style=&quot;background-color: initial;&quot;&gt;::&lt;/span&gt;&lt;span style=&quot;background-color: initial; color: rgb(255, 128, 128);&quot;&gt;string&lt;/span&gt;&lt;/p&gt;&lt;p style=&quot;margin:0px;margin-left:4px;&quot;&gt;+&amp;nbsp;&lt;span style=&quot;font-weight: 600; background-color: initial;&quot;&gt;memory_recall&lt;/span&gt;&lt;span style=&quot;background-color: initial;&quot;&gt;():&amp;nbsp;&lt;/span&gt;&lt;span style=&quot;background-color: initial; color: rgb(255, 128, 128);&quot;&gt;std&lt;/span&gt;&lt;span style=&quot;background-color: initial;&quot;&gt;::&lt;/span&gt;&lt;span style=&quot;background-color: initial; color: rgb(255, 128, 128);&quot;&gt;string&lt;/span&gt;&lt;/p&gt;&lt;p style=&quot;margin:0px;margin-left:4px;&quot;&gt;+&amp;nbsp;&lt;span style=&quot;font-weight: 600; background-color: initial;&quot;&gt;memory_add&lt;/span&gt;&lt;span style=&quot;background-color: initial;&quot;&gt;():&amp;nbsp;&lt;/span&gt;&lt;span style=&quot;background-color: initial; color: rgb(255, 128, 128);&quot;&gt;std&lt;/span&gt;&lt;span style=&quot;background-color: initial;&quot;&gt;::&lt;/span&gt;&lt;span style=&quot;background-color: initial; color: rgb(255, 128, 128);&quot;&gt;string&lt;/span&gt;&lt;/p&gt;&lt;p style=&quot;margin:0px;margin-left:4px;&quot;&gt;+&amp;nbsp;&lt;span style=&quot;font-weight: 600; background-color: initial;&quot;&gt;memory_substract&lt;/span&gt;&lt;span style=&quot;background-color: initial;&quot;&gt;():&amp;nbsp;&lt;/span&gt;&lt;span style=&quot;background-color: initial; color: rgb(255, 128, 128);&quot;&gt;std&lt;/span&gt;&lt;span style=&quot;background-color: initial;&quot;&gt;::&lt;/span&gt;&lt;span style=&quot;background-color: initial; color: rgb(255, 128, 128);&quot;&gt;string&lt;/span&gt;&lt;/p&gt;&lt;p style=&quot;margin:0px;margin-left:4px;&quot;&gt;+&amp;nbsp;&lt;span style=&quot;font-weight: 600; background-color: initial;&quot;&gt;memory_store&lt;/span&gt;&lt;span style=&quot;background-color: initial;&quot;&gt;():&amp;nbsp;&lt;/span&gt;&lt;span style=&quot;background-color: initial; color: rgb(255, 128, 128);&quot;&gt;std&lt;/span&gt;&lt;span style=&quot;background-color: initial;&quot;&gt;::&lt;/span&gt;&lt;span style=&quot;background-color: initial; color: rgb(255, 128, 128);&quot;&gt;string&lt;/span&gt;&lt;/p&gt;" style="verticalAlign=top;align=left;overflow=fill;fontSize=12;fontFamily=Helvetica;html=1;fontColor=#000000;strokeColor=default;fillColor=default;" vertex="1" parent="1">
          <mxGeometry x="540" y="230" width="200" height="170" as="geometry" />
        </mxCell>
        <mxCell id="6x6uG-pEpi2jYfn__AWn-17" value="1" style="endArrow=open;html=1;endSize=12;startArrow=diamondThin;startSize=14;startFill=1;edgeStyle=orthogonalEdgeStyle;align=left;verticalAlign=bottom;rounded=0;fontColor=#000000;" edge="1" parent="1" source="6x6uG-pEpi2jYfn__AWn-2">
          <mxGeometry x="-1" y="3" relative="1" as="geometry">
            <mxPoint x="450" y="315" as="sourcePoint" />
            <mxPoint x="540" y="315" as="targetPoint" />
          </mxGeometry>
        </mxCell>
      </root>
    </mxGraphModel>
  </diagram>
</mxfile>
